<svg width="402" height="209" xmlns="http://www.w3.org/2000/svg" fill="none" viewBox="0 0 402 209">
  <path fill="#D5E9FD" d="M371.3 208.7a60.7 60.7 0 0 0-35.5-69.4A128.8 128.8 0 0 0 206 15.5a129.9 129.9 0 0 0-123.1 86.7A80.8 80.8 0 0 0 10.4 182c0 9.1 1.6 18.1 4.6 26.6h356.3Z"/>
  <path fill="#E7E8EE" d="M406.2 78.6h-4.5v1.1h4.5v-1.1Zm-9 0h-4.5v1.1h4.5v-1.1Zm-9 0h-4.5v1.1h4.5v-1.1Zm-9 0h-4.5v1.1h4.5v-1.1Zm-8.9 0H366v1.1h4.4v-1.1Zm-9 0H357v1.1h4.5v-1.1Zm-9 0H348v1.1h4.5v-1.1Zm-9 0H339v1.1h4.5v-1.1Zm-8.9 0h-4.5v1.1h4.5v-1.1Zm-9 0H321v1.1h4.5v-1.1Zm-9 0H312v1.1h4.5v-1.1Zm-9 0H303v1.1h4.5v-1.1Zm-9 0H294v1.1h4.5v-1.1Zm-8.8 0H285v1.1h4.5v-1.1Zm-9 0H276v1.1h4.5v-1.1Zm-9 0h-4.5v1.1h4.5v-1.1Zm-9 0h-4.5v1.1h4.5v-1.1Zm-9.7.6-3.1 3.1-.4.4v.5h1.2V83l3.1-3.2-.8-.7Zm-2.3 8.5h-1.2v4.5h1.2v-4.5Zm0 8.9h-1.2v4.5h1.2v-4.5Zm0 9h-1.2v4.4h1.2v-4.5Zm0 9h-1.2v4.4h1.2v-4.5Zm0 9h-1.2v2.1l.4.3 1.8 2 .9-1-.9-.8-1-1v-1.7Zm10.2 5.1h-4.5v1.2h4.5v-1.2Zm9 0h-4.5v1.2h4.5v-1.2Zm9 0h-4.5v1.2h4.5v-1.2Zm9 0h-4.5v1.2h4.5v-1.2Zm9 0h-4.5v1.2h4.5v-1.2Zm9 0h-4.5v1.2h4.5v-1.2Zm8.8 0h-4.4v1.2h4.4v-1.2Zm9 0h-4.5v1.2h4.5v-1.2Zm9 0h-4.5v1.2h4.5v-1.2Zm9 0h-4.5v1.2h4.5v-1.2Zm9 0h-4.5v1.2h4.5v-1.2Zm9 0H355v1.2h4.5v-1.2Zm9 0H364v1.2h4.5v-1.2Zm9 0H373v1.2h4.5v-1.2Zm9 0H382v1.2h4.4v-1.2Zm8.8 0H391v1.2h4.5v-1.2Zm9 0H400v1.2h4.5v-1.2Zm6.3-5.8h-1.2v2.5l-.7.7-.6.7.8.8 1.5-1.5.3-.3-.1-3Zm0-9h-1.2v4.5h1.2v-4.5Zm0-9h-1.2v4.5h1.2V105Zm0-9h-1.2v4.5h1.2V96Zm0-9h-1.2v4.5h1.2V87Zm-3.7-8-.8.8 3 3 .8-.9-3-2.9Z"/>
  <path fill="#fff" d="M215 182.2h-97.2a3.3 3.3 0 0 1-3.4-3.3V35.6l3.4-3.3H215l3.3 3.3V179c.1 1.9-1.5 3.3-3.3 3.3Z"/>
  <path fill="#E7E8EE" d="M131.9 147.4c-2.6 0-4.8-2-4.8-4.8v-5.3c0-2.6 2-4.8 4.8-4.8h5.3c2.6 0 4.8 2.1 4.8 4.8v5.3c0 2.7-2 4.8-4.8 4.8H132Zm5-5v-4.8H132v4.8h4.8Z"/>
  <path fill="#fff" d="M137.2 134.3c1.7 0 3 1.3 3.1 3.1v5.3c0 1.7-1.3 3-3 3.2h-5.4c-1.7 0-3-1.4-3.2-3.2v-5.3c0-1.7 1.4-3 3.2-3.1h5.3ZM132 144h5.3c.7 0 1.4-.6 1.4-1.4v-5.3c0-.7-.7-1.3-1.4-1.3H132c-.8 0-1.4.6-1.4 1.3v5.3c0 .8.5 1.4 1.4 1.4Zm5.3-13.3H132c-3.6 0-6.5 3-6.5 6.5v5.3c0 3.6 3 6.5 6.5 6.5h5.3c3.6 0 6.5-3 6.5-6.5v-5.3c-.1-3.5-3-6.5-6.5-6.5Zm-3.4 8.5h1.3v1.4h-1.3v-1.4Z"/>
  <path fill="#E7E8EE" d="M131.9 163.2c-2.6 0-4.8-2-4.8-4.8v-5.3c0-2.6 2-4.8 4.8-4.8h5.3c2.6 0 4.8 2 4.8 4.8v5.3c0 2.6-2 4.8-4.8 4.8H132Zm5-5v-4.9H132v4.8h4.8Z"/>
  <path fill="#fff" d="M137.2 150c1.7 0 3 1.4 3.1 3.2v5.3c0 1.7-1.3 3.2-3 3.2h-5.4a3.1 3.1 0 0 1-3.2-3.2v-5.3c0-1.7 1.4-3 3.2-3.1h5.3ZM132 160h5.3c.7 0 1.4-.6 1.4-1.4v-5.3c0-.7-.7-1.4-1.4-1.4H132c-.8 0-1.4.7-1.4 1.4v5.3c0 .7.5 1.3 1.4 1.4Zm5.3-13.3H132c-3.6 0-6.5 3-6.5 6.5v5.3c0 3.6 3 6.5 6.5 6.5h5.3c3.6 0 6.5-3 6.5-6.5v-5.3c-.1-3.6-3-6.5-6.5-6.5Zm-3.4 8.5h1.3v1.3h-1.3v-1.3Z"/>
  <path fill="#E7E8EE" d="M201.5 142.4h-54.8l-1.5-1.5v-1.6l1.5-1.6h54.8l1.5 1.6v1.6l-1.5 1.5ZM184.5 158.3h-37.9l-1.6-1.6v-1.5l1.6-1.6h38l1.5 1.6v1.6l-1.6 1.5ZM135.1 75.2l-1.2-1.1v-1.5l1.2-1.1h19.5l1.2 1.1v1.5l-1.2 1.1H135Z"/>
  <path fill="#fff" d="m154.2 72.2.8.7v.8l-.8.7h-18.8l-.7-.7v-.8l.7-.7h18.8Zm.7-1.6h-20.2l-.4.5-.7.7-.6.5v2.1l.6.5.7.8.4.4h20.2l.5-.4.7-.8.4-.5v-2l-.4-.6-.7-.7-.5-.5Z"/>
  <path fill="#E7E8EE" d="m157.9 75.2-1.3-1.1v-1.5l1.3-1.1h13.4l1.1 1.1v1.5l-1.1 1.1h-13.4Z"/>
  <path fill="#fff" d="m171 72.2.7.7v.8l-.7.7h-12.7l-.7-.7v-.8l.7-.7H171Zm.6-1.6h-14l-.5.5-.6.5-.3.3-.4.5v2.1l.4.5.8.8.5.4h14l.4-.4.7-.8.6-.5v-2l-.6-.6v-.1l-.7-.6-.3-.6Z"/>
  <path stroke="#E7E8EE" stroke-miterlimit="10" stroke-width="1.1" d="M131 65.4h69.5c1.3 0 2.2 1 2.2 2.2V79c0 1.3-1 2.2-2.2 2.2H131c-1.2 0-2.2-1-2.2-2.2V67.7c0-1.2 1-2.3 2.2-2.3Z"/>
  <path fill="#E7E8EE" d="m194.2 75.8 2.5-4.5h-5.2l2.7 4.5ZM173.9 59.5h-43.6l-1.6-1.6v-1.6l1.6-1.5H174l1.6 1.5V58l-1.6 1.6ZM135.1 115.7l-1.2-1.3v-1.3l1.2-1.3h10l1.2 1.3v1.3l-1.3 1.3h-9.9Z"/>
  <path fill="#fff" d="m144.7 112.7.8.7v.7l-.8.7h-9.3l-.7-.7v-.7l.7-.7h9.3Zm.7-1.6h-10.7l-.4.4-.7.7-.6.6v2l.6.6.8.8.4.4h10.7l.5-.4.6-.6.1-.1.4-.5v-2.1l-.4-.6-.7-.7-.6-.5Z"/>
  <path fill="#E7E8EE" d="m148.4 115.7-1.3-1.3v-1.3l1.3-1.3h22.9l1.1 1.3v1.3l-1.1 1.3h-23Z"/>
  <path fill="#fff" d="m171 112.7.7.7v.7l-.7.7h-22.2l-.7-.7v-.7l.7-.7H171Zm.6-1.6H148l-.5.4-.8.7-.4.6v2l.4.6.4.4.5.4.5.4h23.5l.4-.4.7-.7.6-.5v-2.1l-.6-.6-.7-.7-.5-.5Z"/>
  <path stroke="#E7E8EE" stroke-miterlimit="10" stroke-width="1.1" d="M131 105.9h69.5c1.3 0 2.2 1 2.2 2.2v11.3c0 1.3-1 2.2-2.2 2.2H131c-1.2 0-2.2-1-2.2-2.2v-11.3c0-1.2 1-2.2 2.2-2.2Z"/>
  <path fill="#E7E8EE" d="m194.2 116.1 2.5-4.4h-5.2l2.7 4.4ZM181.7 99.9h-51.4l-1.6-1.6v-1.5l1.6-1.6h51.4l1.6 1.6v1.4l-1.6 1.7Z"/>
  <path fill="#A7ACC3" d="M134.3 142.1h-.9l-2-2 .7-1 1.8 1.9 3-3 .8.8-3.4 3.3Z"/>
  <path fill="#E7E8EE" d="M129.2 182.2H32a3.3 3.3 0 0 1-3.4-3.3V35.6l3.4-3.3h97.2l3.3 3.3V179c0 1.9-1.5 3.3-3.3 3.3Z"/>
  <path fill="#CFD2DE" d="M19 207s27.6-10 40-3c5.5-4 21.4-7.1 27.5-2.8 8.8 6.1 17.4-2.4 27-3.6 9.6-1.1 28.1-.8 33.1 4.8 10.8-4.8 16.7-1.8 22.2 1.6 7.3-2.8 114.7-5 141.5 0 26.8 4.9 47.8 2.6 54.6 2.6 6.8 0 11.6-2.5 16.5-2.6 5-.1 9.1-1 13 2.6 9.4-2.2 20.7-2.2 23 2.3H.4l18.6-2Z"/>
  <path fill="#fff" d="M121.4 182.2H24.2A3.3 3.3 0 0 1 21 179V35.6l3.3-3.3h97.2l3.4 3.3V179c0 1.9-1.5 3.3-3.4 3.3Z"/>
  <path fill="#E7E8EE" d="M38.4 105c-2.7 0-4.9-2-4.9-4.8V95c0-2.6 2.1-4.8 4.9-4.8h5.3c2.6 0 4.8 2 4.8 4.8v5.3c0 2.6-2.1 4.8-4.8 4.8h-5.3Zm5-5v-4.8h-4.8v4.8h4.8Z"/>
  <path fill="#fff" d="M43.7 91.9c1.7 0 3.1 1.3 3.1 3v5.4c0 1.7-1.3 3-3.1 3.2h-5.3c-1.7 0-3-1.4-3.2-3.2V95c0-1.7 1.4-3.1 3.2-3.1h5.3Zm-5.3 9.8h5.3c.7 0 1.3-.6 1.3-1.4V95c0-.7-.6-1.4-1.3-1.4h-5.3c-.8 0-1.4.7-1.4 1.4v5.3c-.1.8.5 1.4 1.4 1.4Zm5.3-13.2h-5.3c-3.6 0-6.5 3-6.5 6.5v5.3c0 3.6 2.9 6.5 6.5 6.5h5.3c3.5 0 6.5-3 6.5-6.5V95c-.1-3.7-3-6.5-6.5-6.5ZM40.2 97h1.4v1.3h-1.4V97Z"/>
  <path fill="#E7E8EE" d="M38.4 120.8c-2.7 0-4.9-2-4.9-4.8v-5.3c0-2.6 2.1-4.8 4.9-4.8h5.3c2.6 0 4.8 2 4.8 4.8v5.3c0 2.6-2.1 4.8-4.8 4.8h-5.3Zm5-5V111h-4.8v4.8h4.8Z"/>
  <path fill="#fff" d="M43.7 107.6c1.7 0 3 1.4 3.1 3.2v5.3c0 1.7-1.3 3-3.1 3.1h-5.3c-1.7 0-3-1.3-3.2-3.1v-5.3c0-1.7 1.4-3 3.2-3.2h5.3Zm-5.3 9.9h5.3c.7 0 1.3-.7 1.3-1.4v-5.3c0-.8-.6-1.4-1.3-1.4h-5.3c-.8 0-1.4.6-1.4 1.4v5.3c-.1.7.5 1.4 1.4 1.4Zm5.3-13.2h-5.3c-3.6 0-6.5 3-6.5 6.5v5.3c0 3.6 2.9 6.5 6.5 6.5h5.3c3.5 0 6.5-3 6.5-6.5v-5.3c-.1-3.7-3-6.5-6.5-6.5Zm-3.5 8.4h1.4v1.3h-1.4v-1.3Z"/>
  <path fill="#E7E8EE" d="M38.4 136.6c-2.7 0-4.9-2.1-4.9-4.8v-5.4c0-2.6 2.1-4.8 4.9-4.8h5.3c2.6 0 4.8 2.1 4.8 4.8v5.4c0 2.6-2.1 4.8-4.8 4.8h-5.3Zm5-5v-4.8h-4.8v4.8h4.8Z"/>
  <path fill="#fff" d="M43.7 123.4c1.7 0 3 1.4 3.1 3.1v5.4c0 1.7-1.3 3-3.1 3.1h-5.3c-1.7 0-3-1.3-3.2-3.1v-5.5c0-1.6 1.4-3 3.2-3h5.3Zm-5.3 9.8h5.3c.7 0 1.3-.6 1.3-1.3v-5.5c0-.7-.6-1.3-1.3-1.3h-5.3c-.8 0-1.4.6-1.4 1.3v5.4c-.1.8.5 1.4 1.4 1.4Zm5.3-13.2h-5.3c-3.6 0-6.5 2.9-6.5 6.4v5.4c0 3.5 2.9 6.5 6.5 6.5h5.3c3.5 0 6.5-3 6.5-6.5v-5.4c-.1-3.5-3-6.3-6.5-6.4Zm-3.5 8.4h1.4v1.4h-1.4v-1.4Z"/>
  <path fill="#E7E8EE" d="M108 100H53.1l-1.6-1.6V97l1.6-1.6h54.7l1.6 1.6v1.5L108 100ZM91.1 115.9h-38l-1.5-1.6v-1.5l1.6-1.6h38l1.5 1.6v1.5L91 116ZM99.5 131.6H53.2l-1.6-1.6v-1.6l1.6-1.5h46.3l1.6 1.5v1.6l-1.6 1.6ZM41.6 154.9l-1.3-1.3v-1.3l1.3-1.3H61l1.3 1.3v1.3L61 155H41.6Z"/>
  <path fill="#fff" d="m60.7 151.8.7.8v.7l-.7.7H42l-.7-.7v-.7l.7-.8h18.8Zm.6-1.5H41.2l-.4.4-.4.3-.5.5-.4.4v2.1l.4.5.5.5.4.3.5.5h20l.5-.5.7-.7.5-.5v-2l-.5-.5-.7-.7-.5-.6Z"/>
  <path fill="#E7E8EE" d="m64.4 154.9-1.2-1.3v-1.3l1.2-1.3h13.3l1.2 1.3v1.3l-1.2 1.3H64.4Z"/>
  <path fill="#fff" d="m77.3 151.8.8.8v.7l-.8.7H64.7l-.7-.7v-.7l.7-.8h12.6Zm.8-1.5H64l-.5.5-.7.7-.4.4v2.1l.4.5.7.7.5.5h14l.4-.5.7-.7.4-.5v-2l-.4-.5-.7-.8-.4-.4Z"/>
  <path stroke="#E7E8EE" stroke-miterlimit="10" stroke-width="1.1" d="M37.5 145h69.6c1.3 0 2.2 1 2.2 2.2v11.4c0 1.3-1 2.2-2.2 2.2H37.5c-1.2 0-2.2-1-2.2-2.2v-11.4c0-1.2 1-2.2 2.2-2.2Z"/>
  <path fill="#E7E8EE" d="m100.6 155.3 2.6-4.5H98l2.6 4.5ZM41 69.3a4 4 0 1 1 0 8.1 4 4 0 0 1 0-8.1Zm0-1.7a5.8 5.8 0 0 0-5.8 5.8c0 3 2.6 5.7 5.8 5.7 3.1 0 5.7-2.6 5.7-5.7 0-3.2-2.6-5.8-5.7-5.8ZM107.6 75.8H53l-1.6-1.6v-1.6l1.6-1.5h54.7l1.6 1.5v1.6l-1.6 1.6ZM41 53a4 4 0 0 1 4 4 4 4 0 0 1-4 4.1 4 4 0 0 1-4.1-4c0-2.2 1.9-4.1 4-4.1Zm0-1.7a5.8 5.8 0 0 0-5.8 5.8c0 3 2.6 5.7 5.8 5.7 3.1 0 5.7-2.6 5.7-5.7 0-3.2-2.6-5.8-5.7-5.8ZM96.5 59.5H52.9l-1.6-1.6v-1.6l1.6-1.5h43.6l1.5 1.5V58l-1.5 1.6Z"/>
  <path fill="#A7ACC3" d="M41 59.8a2.7 2.7 0 1 0 0-5.5 2.7 2.7 0 0 0 0 5.5ZM40.8 99.8h-.9l-2-2.2.8-.8 1.6 1.7 3-3 .9.8-3.4 3.5ZM40.8 131.3h-.9l-2-2.2.8-.8 1.6 1.8 3-3 .9.7-3.4 3.5Z"/>
  <path fill="#fff" d="M406.2 194.4H253.9l-3.3-3.4v-42.2l3.3-3.3h152.3l3.3 3.3V191l-3.3 3.4Z"/>
  <path fill="#96D7E6" d="M306.3 194.4h-52.4l-3.3-3.4v-42.2l3.3-3.3h52.4v48.9Z"/>
  <path fill="#E7E8EE" d="M365.8 160.8h-51.3l-2-2v-2.5l2-2h51.3l2 2v2.5l-2 2ZM313.7 166.6h63.7c.6 0 1.1.5 1.1 1.1 0 .7-.5 1.2-1.1 1.2h-63.7c-.6 0-1.1-.6-1.1-1.2-.1-.6.5-1.1 1.1-1.1ZM313.7 173.9h51.8c.7 0 1.2.5 1.2 1.1 0 .7-.5 1.2-1.2 1.2h-51.8c-.6 0-1.1-.5-1.1-1.2-.1-.6.5-1.1 1.1-1.1ZM313.7 181.2h36.6c.6 0 1.1.5 1.1 1.2 0 .6-.5 1.1-1.1 1.1h-36.6c-.6 0-1.1-.5-1.1-1.1-.1-.7.5-1.2 1.1-1.2Z"/>
  <path fill="#232E6A" d="M250.6 185.2v5.8l3.3 3.4h52.4v-9.2h-55.7ZM259.9 175.4l-2.6 1.7c0-.7.3-1.4.5-2.2.5-.2 1-.5 1.3-1l.8 1.5Z"/>
  <path fill="#00B4E9" d="M288.5 161c0-.7-.3-1.3-.8-1.6l-.6-.1c-.7 0-1.2 0-1.8.2l-.3.4-.2.2-.1.1-.1.2-.2.1-.7.8c-.2 0-.3.3-.3.3.8-.4 1 .3 1 .6 0 .5-.3 1-.8 1l.8 1.4 1.3-.5.8-.9.1-.4h.9c.3.1.6 0 .7-.4.2-.4.3-1 .3-1.5Z"/>
  <path fill="#232E6A" d="M263.9 175.4a5 5 0 0 0-5 5 5 5 0 0 0 5 5 5 5 0 0 0 5-5 5 5 0 0 0-5-5Zm0 8.4a3.3 3.3 0 0 1-3.4-3.3c0-2 1.5-3.4 3.4-3.4 1.8 0 3.3 1.5 3.3 3.4 0 1.7-1.5 3.3-3.3 3.3Z"/>
  <path fill="#A7ACC3" d="M263.9 183a2.7 2.7 0 1 0 0-5.3 2.7 2.7 0 0 0 0 5.4Z"/>
  <path fill="#232E6A" d="M293.9 175.4a5 5 0 0 0-5 5 5 5 0 0 0 5 5 5 5 0 0 0 5-5 5 5 0 0 0-5-5Zm0 8.4a3.3 3.3 0 0 1-3.4-3.3c0-2 1.5-3.4 3.4-3.4 1.8 0 3.3 1.5 3.3 3.4a3.2 3.2 0 0 1-3.3 3.3Z"/>
  <path fill="#A7ACC3" d="M293.9 183a2.7 2.7 0 1 0 0-5.4 2.7 2.7 0 0 0 0 5.5Z"/>
  <path fill="#232E6A" d="M269.4 182.6h4.3c.4 0 .8-.4 1.1-.7h1.3l2.5-.3 1.8-.3h1l-12.5-1.9c.4 1 .6 2.1.5 3.2ZM288.2 176l-.4.7 1.2-2.4-.8 1.5v.2Z"/>
  <path fill="#00B4E9" d="m288.3 175.8.9-1.5.3-.7-1.3 2.3.1-.1Z"/>
  <path fill="#232E6A" d="M283.7 161.5c-.2 0-.5 0-.6.3-.3 0-.6.3-.5.6 0 .3.2.5.5.5.3.3 1 .4 1.2.1.3-.2.4-.4.4-.6-.1-.5-.6-1-1-1Z"/>
  <path fill="#00B4E9" d="m295.6 173.2-2.4-.7v-.3l-1.1-2.4-5-5.8-.2-.1c-.7.7-.6 1.3-.2 2l2.7 4.4c.4.9-.2 1-.6 1.8-.3.8-1.1 4.6-1.1 4.6-.6.7-1.5 1.2-2.4 1.4-1.5 0-5.3-.2-7-.9-1.6-.7-1.9-2.4-3.5-4.9-1.5-2.5-5-2.2-7.2-2.6l-.7-.1.7-.6-3.3-.5-3.6 2.6-2.7 4 9.7 2c.7.7 1 1.5 1.4 2.3l12.5 2 4-.3 2.8-2.2 1.7-.4s3-2.8 5.5-2.5h1.5c.3 0 .6.2 1 0l-2.5-2.8Z"/>
  <path fill="#232E6A" d="m289.4 170.4-2.7-4.3c-.4-.9-.5-1.5.2-2.1l-.5-.7-.8.9-1.3.5-.2.1c.2.3 2.4 6 2.4 6.5l-.3 2.3-1.6 4-4-.4s-2.1-.2-3.3-1.4c-1.1-1.3.4-3.9.4-3.9l.8.2.6-.3.6-2-1.6-2-14.1-1.2h-.6s-.4.5-.3.8c0 0 .7 1.8 4.4 2.4 2.2.3 5.7.1 7.2 2.6 1.6 2.5 2 4.3 3.6 5 1.7.7 5.5 1 6.9.8 1.4-.1 1.8-.1 3-2.2l1.3-2.3c.2-.4-.3-1-.2-1.3.2-.8.6-1.1 0-2Z"/>
  <path fill="#232E6A" d="m287.9 167.8 2 3.4v2.3l-2.5 4.2-1.6.7-8.4-.6-2.5-5.2 1 1 2 3.1 1.1.7 5.7.6 1.7-.7 1.7-5-1.6-3.8 1.4-.7Z"/>
  <path fill="#fff" d="M406.2 65.8H253.9l-3.3-3.3V20.2l3.3-3.4h152.3l3.3 3.4v42.2l-3.3 3.4Z"/>
  <path fill="#96D7E6" d="M306.4 65.8h-52.5l-3.3-3.3V20.2l3.3-3.4h52.4v49Z"/>
  <path fill="#E7E8EE" d="M365.8 32.3h-51.3l-2-2v-2.5l2-2h51.3l2 2v2.5l-2 2ZM313.7 38h63.7c.6 0 1.1.6 1.1 1.2s-.5 1.1-1.1 1.1h-63.7c-.6 0-1.1-.5-1.1-1.1-.1-.6.5-1.2 1.1-1.2ZM313.7 45.4h51.8c.7 0 1.2.5 1.2 1.1 0 .6-.5 1.2-1.2 1.2h-51.8c-.6 0-1.1-.6-1.1-1.2-.1-.6.5-1.1 1.1-1.1ZM313.7 52.7h36.6c.6 0 1.1.5 1.1 1.1 0 .6-.5 1.2-1.1 1.2h-36.6c-.6 0-1.1-.6-1.1-1.2-.1-.6.5-1.1 1.1-1.1Z"/>
  <path fill="#fff" d="M277.6 23.3a18.3 18.3 0 1 0 0 36.6 18.3 18.3 0 0 0 0-36.6Zm0 12c.4 0 .6.2.6.5 0 .4-.2.8-.5.8-.5 0-.7-.3-.7-.7 0-.4.2-.7.6-.7Zm-5 5.4c-.5 0-.7-.4-.7-.7 0-.3.3-.6.6-.6.5 0 .7.3.7.6s-.2.7-.7.7Zm1.3 5.5c-.4 0-.6-.3-.6-.6 0-.5.3-.7.6-.7.4 0 .6.3.6.7 0 .3-.2.6-.6.6Zm3.7-1c-2 0-3.6-1.6-3.6-3.6s1.6-3.6 3.6-3.6 3.5 1.6 3.5 3.6c0 1.9-1.6 3.4-3.5 3.5Zm3.4 1.4c-.4 0-.6-.3-.6-.6 0-.4.3-.6.6-.6.4 0 .6.3.6.6s-.3.5-.6.6Zm1.7-5.8c-.4 0-.7-.4-.7-.7 0-.3.4-.6.7-.6.4 0 .6.3.6.6s-.3.6-.6.7Z"/>
  <path fill="#232E6A" d="M277.6 31.1c-5.8 0-10.4 4.6-10.4 10.4 0 5.7 4.6 10.3 10.4 10.3 5.7 0 10.3-4.6 10.3-10.3 0-5.7-4.6-10.4-10.3-10.4Zm0 4.2c.4 0 .6.3.6.6 0 .5-.3.7-.6.7-.5 0-.7-.3-.7-.7 0-.4.3-.7.7-.6Zm-5 5.5c-.5 0-.7-.4-.7-.7 0-.3.3-.6.6-.6.5 0 .7.3.7.6s-.2.6-.7.7Zm1.3 5.4c-.4 0-.6-.3-.6-.6 0-.5.3-.7.6-.7.4 0 .6.3.6.7 0 .4-.3.6-.6.6Zm3.7-1c-2 0-3.6-1.6-3.6-3.6s1.6-3.6 3.6-3.6 3.5 1.6 3.5 3.6c0 1.9-1.6 3.4-3.5 3.5Zm3.4 1.4c-.4 0-.6-.3-.6-.6 0-.4.3-.6.6-.6.4 0 .6.3.6.6s-.3.5-.6.6Zm1.7-5.8c-.4 0-.7-.4-.7-.7 0-.4.4-.6.7-.6.4 0 .6.3.6.6s-.3.6-.6.7Z"/>
  <path fill="#C0E7F0" d="M277.6 35.2c.4 0 .6.3.6.6 0 .5-.3.7-.6.7a.7.7 0 0 1-.7-.7c0-.3.3-.6.7-.6Zm-5 5.5c-.5 0-.7-.4-.7-.7 0-.3.3-.6.6-.6.5 0 .7.3.7.6s-.2.7-.7.7Zm1.3 5.5c-.4 0-.6-.3-.6-.6 0-.5.3-.7.6-.7.4 0 .6.3.6.7 0 .3-.2.6-.6.6Zm3.7-1c-2 0-3.6-1.6-3.6-3.6s1.6-3.6 3.6-3.6 3.5 1.6 3.5 3.6c0 1.9-1.6 3.4-3.5 3.5Zm3.4 1.4c-.4 0-.6-.3-.6-.6s.3-.6.6-.6c.4 0 .6.3.6.6s-.3.5-.6.6Zm1.7-5.8c-.4 0-.7-.4-.7-.7 0-.4.4-.6.7-.6.4 0 .6.3.6.6s-.3.6-.6.7Z"/>
  <path fill="#A7ACC3" d="M279.7 30.4a.6.6 0 1 0 0-1.2.6.6 0 0 0 0 1.2ZM277.2 28.2a.6.6 0 1 0 0-1.2.6.6 0 0 0 0 1.2ZM274.8 26a.6.6 0 1 0 0-1.3.6.6 0 0 0 0 1.2ZM272.6 31.2a.6.6 0 1 0 0-1.2.6.6 0 0 0 0 1.2ZM269.4 30.7a.6.6 0 1 0 0-1.2.6.6 0 0 0 0 1.2ZM266.2 30.3a.6.6 0 1 0 0-1.2.6.6 0 0 0 0 1.2ZM267.7 35.2a.6.6 0 1 0 0-1.2.6.6 0 0 0 0 1.2ZM264.7 36.6a.6.6 0 1 0 0-1.3.6.6 0 0 0 0 1.3ZM261.7 37.8a.6.6 0 1 0 0-1.2.6.6 0 0 0 0 1.2ZM265.5 41.7a.6.6 0 1 0 0-1.3.6.6 0 0 0 0 1.3ZM263.8 44.4a.6.6 0 1 0 0-1.2.6.6 0 0 0 0 1.2ZM261.9 47.1a.6.6 0 1 0 0-1.2.6.6 0 0 0 0 1.2ZM267.4 48.5a.6.6 0 1 0 0-1.3.6.6 0 0 0 0 1.3ZM267.4 51.8a.6.6 0 1 0 0-1.2.6.6 0 0 0 0 1.2ZM267.4 55a.6.6 0 1 0 0-1.2.6.6 0 0 0 0 1.3ZM272.1 52.9a.6.6 0 1 0 0-1.3.6.6 0 0 0 0 1.3ZM273.8 55.6a.6.6 0 1 0 0-1.3.6.6 0 0 0 0 1.3ZM275.5 58.4a.6.6 0 1 0 0-1.2.6.6 0 0 0 0 1.2ZM279.3 54a.6.6 0 1 0 0-1.2.6.6 0 0 0 0 1.2ZM282.4 55.3a.6.6 0 1 0 0-1.3.6.6 0 0 0 0 1.3ZM285.4 56.6a.6.6 0 1 0 0-1.2.6.6 0 0 0 0 1.2ZM285.7 51a.6.6 0 1 0 0-1.3.6.6 0 0 0 0 1.3ZM289 50.4a.6.6 0 1 0 0-1.3.6.6 0 0 0 0 1.3ZM292.2 49.7a.6.6 0 1 0 0-1.2.6.6 0 0 0 0 1.2ZM285.6 33.2a.6.6 0 1 0 0-1.2.6.6 0 0 0 0 1.2ZM284.7 30.1a.6.6 0 1 0 0-1.3.6.6 0 0 0 0 1.3ZM283.7 27a.6.6 0 1 0 0-1.3.6.6 0 0 0 0 1.3ZM277.6 34.2c-4.1 0-7.4 3.2-7.4 7.3 0 4 3.3 7.3 7.4 7.3 4 0 7.3-3.2 7.3-7.3 0-4-3.3-7.3-7.3-7.3Zm0 1c.4 0 .6.3.6.6 0 .5-.3.7-.6.7a.7.7 0 0 1-.7-.7c0-.3.3-.6.7-.6Zm-5 5.5c-.5 0-.7-.4-.7-.7 0-.3.3-.6.6-.6.5 0 .7.3.7.6s-.2.7-.7.7Zm1.3 5.5c-.4 0-.6-.3-.6-.6 0-.5.3-.7.6-.7.4 0 .6.3.6.7 0 .3-.2.6-.6.6Zm3.7-1c-2 0-3.6-1.6-3.6-3.6s1.6-3.6 3.6-3.6 3.5 1.6 3.5 3.6c0 1.9-1.6 3.4-3.5 3.5Zm3.4 1.4c-.4 0-.6-.3-.6-.6s.3-.6.6-.6c.4 0 .6.3.6.6s-.3.5-.6.6Zm1.7-5.8c-.4 0-.7-.4-.7-.7 0-.4.4-.6.7-.6.4 0 .6.3.6.6s-.3.6-.6.7ZM289 45.6a.6.6 0 1 0 0-1.3.6.6 0 0 0 0 1.3ZM290.7 44.1a.6.6 0 1 0 0-1.3.6.6 0 0 0 0 1.3ZM292.3 42.6a.6.6 0 1 0 0-1.2.6.6 0 0 0 0 1.2ZM294 41.2a.6.6 0 1 0 0-1.3.6.6 0 0 0 0 1.3ZM289 38.7a.6.6 0 1 0 0-1.3.6.6 0 0 0 0 1.3ZM289.6 36.5a.6.6 0 1 0 0-1.3.6.6 0 0 0 0 1.3ZM290 34.4a.6.6 0 1 0 0-1.3.6.6 0 0 0 0 1.3ZM290.6 32.3a.6.6 0 1 0 0-1.3.6.6 0 0 0 0 1.3Z"/>
  <path fill="#232E6A" d="m287.5 32-.2 2.4a12 12 0 0 1-.1 14.5l.2 2.3 3.1 3.1h2.6c6-7.3 6-17.7.3-25l-2.6-.2-3.3 3Z"/>
  <path fill="#fff" d="M289.4 34.6a.7.7 0 1 0 0-1.5.7.7 0 0 0 0 1.5Z"/>
  <path fill="#A7ACC3" d="M289.4 34.3a.4.4 0 1 0 0-.9.4.4 0 0 0 0 .9Z"/>
  <path fill="#fff" d="M289 50.5a.7.7 0 1 0 0-1.5.7.7 0 0 0 0 1.5Z"/>
  <path fill="#A7ACC3" d="M289 50.2a.4.4 0 1 0 0-.9.4.4 0 0 0 0 .9Z"/>
  <path fill="#fff" d="M291.6 53.2a.7.7 0 1 0 0-1.5.7.7 0 0 0 0 1.5Z"/>
  <path fill="#A7ACC3" d="M291.6 52.9a.4.4 0 1 0 0-.9.4.4 0 0 0 0 .9Z"/>
  <path fill="#fff" d="M292.4 32.4a.7.7 0 1 0 0-1.5.7.7 0 0 0 0 1.5Z"/>
  <path fill="#A7ACC3" d="M292.4 32a.4.4 0 1 0 0-.8.4.4 0 0 0 0 .9ZM289.7 41.6a11 11 0 0 1-1 4.8l2-2v-5.7l-2.2-2.2c.8 1.5 1.2 3.2 1.2 5Z"/>
  <path fill="#fff" d="M387.5 138H185.3l-4.5-4.4V77.4l4.5-4.5h202.2l4.5 4.5v56.2l-4.5 4.4Z"/>
  <path fill="#96D7E6" d="M254.5 138h-69.6l-4.5-4.4V77.4l4.5-4.5h69.6V138Z"/>
  <path fill="#232E6A" d="M180.4 123.8v9.8l4.5 4.4h69.6v-14.2h-74.1Z"/>
  <path fill="#E7E8EE" d="M316.4 88.8h-51.2l-2-2v-2.5l2-2h51.3l2 2v2.5l-2 2ZM264.4 94.6H328c.7 0 1.2.5 1.2 1.1 0 .6-.5 1.2-1.2 1.2h-63.6c-.6 0-1.2-.6-1.2-1.2s.5-1.1 1.2-1.1ZM264.4 101.9h51.8c.6 0 1.2.5 1.2 1.1 0 .7-.6 1.2-1.2 1.2h-51.8c-.6 0-1.2-.5-1.2-1.2 0-.6.5-1.1 1.2-1.1ZM276.5 114.3h19.8c.6 0 1.1.5 1.1 1.2 0 .6-.5 1.1-1.1 1.1h-19.8c-.6 0-1.1-.5-1.1-1.1 0-.7.5-1.2 1.1-1.2ZM271.5 114.8a4 4 0 0 0-4-4 4 4 0 0 0-4.2 4 4 4 0 0 0 1.5 3.2l2.6 3 2.6-3a4 4 0 0 0 1.5-3.2Zm-4-1.5c.9 0 1.6.7 1.6 1.7 0 .9-.7 1.6-1.7 1.6s-1.7-.7-1.7-1.6c0-1 .8-1.7 1.7-1.7ZM379.1 121.3l2 3.9 4.3.6-3.1 3 .7 4.3-3.9-2-3.7 2 .7-4.3-3.1-3 4.2-.6 2-3.9Z"/>
  <path fill="#232E6A" d="M227.8 105.6h-5.7l-2.2-2.1v-8.8l2.2-2.2h5.7l2.2 2.2v8.8l-2.2 2.1ZM207 105.6h5.8l2.2-2.1v-8.8l-2.2-2.2H207l-2.2 2.2v8.8l2.2 2.1Z"/>
  <path fill="#E7E8EE" d="M229.3 84.9h-12.6l-11.1 13.5h12.8l12.2-13.3-1.3-.2Z" opacity=".5"/>
  <path fill="#232E6A" d="m234.2 86.8-2.4-1.8c-2.7-.4-8.3-.9-13.7-1h-1.3c-5.4.1-11 .6-13.7 1l-2.4 1.8-3.8 11h2.7L202 88l2-1.9c4.2-.7 8.3-1 12.5-1h1.7c4.2 0 8.4.4 12.4 1l2.1 1.9 2.5 9.6h2.8l-4-10.9Z"/>
  <path fill="#232E6A" d="M237.5 98.2v-1.7l1.3-1.3h4l.5.8-.2.6c-.3.7-1 1.2-2 1.4l-.5.1-3 .1Z"/>
  <path fill="#FA0000" d="M238.8 97.7h-4.2c-5.3-1.9-9-1.7-17.2-1.7h-2.5l-3.4 19.9h26.3c1.6 0 2.9-1.3 2.9-2.8l1.2-3.8v-8.9l-3.1-2.7Z"/>
  <path fill="#fff" d="M232.4 99.7h5.8c.9 0 1.6.7 1.6 1.7v.4c0 1-.7 1.7-1.6 1.7h-5.8c-1 0-1.7-.8-1.7-1.7v-.4c0-1 .8-1.7 1.7-1.7Z"/>
  <path fill="#232E6A" d="M197.3 98.2v-1.7l-1.3-1.3h-4l-.5.8.3.6c.3.7 1 1.3 1.8 1.4l.7.1 3 .1Z"/>
  <path fill="#FA0000" d="M196.1 97.7h4.2c5.4-1.9 9.1-1.7 17.3-1.7h2.5l3.3 19.9h-26.3a2.8 2.8 0 0 1-2.8-2.8l-1.3-3.8v-8.9l3.1-2.7Z"/>
  <path fill="#232E6A" d="M240.6 111h-46.3l-1.5 1.4v4.7l.6.7v5.7c0 .3.2.5.6.5h5.8c.3 0 .5-.2.5-.5v-4.9h34v5c0 .2.2.4.5.4h5.9c.3 0 .5-.2.5-.5v-5.7l.6-.7v-4.7l-1.2-1.4Z"/>
  <path fill="#fff" d="M198.7 115.6a1.1 1.1 0 1 0 0-2.3 1.1 1.1 0 0 0 0 2.3Z"/>
  <path fill="#232E6A" d="M225.6 99.4h-16.3a3.5 3.5 0 0 0-3.4 3.4v1.7c0 1.9 1.5 3.4 3.4 3.4h16.3c1.9 0 3.5-1.5 3.5-3.4v-1.7c0-2-1.6-3.4-3.5-3.4Z"/>
  <path fill="#fff" d="M202.4 103.3h-5.7c-1 0-1.7-.7-1.7-1.6v-.4c0-1 .7-1.7 1.7-1.7h5.7c1 0 1.7.7 1.7 1.7v.4c0 1-.7 1.6-1.7 1.6Z"/>
  <path fill="#E7E8EE" d="M217.2 105a1.5 1.5 0 1 0 0-3 1.5 1.5 0 0 0 0 3Z"/>
  <path fill="#fff" d="M236.3 115.6a1.1 1.1 0 1 0 0-2.3 1.1 1.1 0 0 0 0 2.3Z"/>
  <path fill="#EEC21E" d="m178.4 119.3-24.8 6.2-19.6-8.3 1 10.4 18.6 6.6 28.9-10.8-4.1-4Z"/>
  <path fill="#CA0001" d="m147.1 121.8-5 9.7-8.2-6.3a4.4 4.4 0 0 1-.9-6.2l.3-.4a4.5 4.5 0 0 1 5.2-1l8.6 4.2Z"/>
  <path fill="#232E6A" d="m33.3 202.3 6.8 6.5h16.3c-1.1-2.2-5-5.2-8.7-5.2h-3.4l-6-6-5 4.7Z"/>
  <path fill="#232E6A" d="M62.7 169c1.8-4.1 13.9-29.2 16.4-34.2l12.9 6.3-1.6 3.3 1.7 1.2s-6.6 16.6-16.8 30.4l-.6.8c-1.4 2.3-5 6.7-14.7 16.6-6.6 6.8-13 13-13 13l-10-10.1A320 320 0 0 0 62.7 169Z"/>
  <path fill="#FA0000" d="m99 141.2 23-4.8c3.8-.8 7.3-2.6 10-5.3l6.3-6.1-6-10.5s-19.6-2.5-43.4 11.2c-3.7 2.5 10.2 15.5 10.2 15.5Z"/>
  <path fill="#232E6A" d="M110.8 208.9h23.5c-1-1-1.9-1.9-3-2.6a15.2 15.2 0 0 0-8.1-2.7h-12.4v5.3ZM76 143v-5.8c0-3 1.7-5.7 4.6-6.9l8.4-4.6 7 10.5-20 6.9Z"/>
  <path fill="#232E6A" d="M107.6 147c-6.9-7.4-13.7-14-13.9-14.3l-7.7 8c-3.7-.1-7.8.7-3.4 5.8 11.1 14.6 22.3 19.3 26 23.5l.4.6v33h14.3v-34c0-3.3-1.2-7.1-15.7-22.7ZM62.7 169c1.1-2.6 6.6-14 11-23v32.3c-2 2.6-5.8 7-13.6 15.1l-13 13-10-10.1A331.4 331.4 0 0 0 62.7 169Z"/>
  <path fill="#EEC21E" d="m177.7 122-.5-9.8.7-4.6 1.5-3.3h1.3l-.2 5s1.6-1.9 2.2-1.8c.5.1 1 1.4.4 2l-1.9 2.1a4 4 0 0 0 .8 3.7l1.3 1.8 1 3.6-1.1 1.8a2.5 2.5 0 0 1-3.5.8h-.2l-1.8-1.3Z"/>
  <path fill="#FFD333" d="m132.4 114.5 10.2-7.6 3 7.1-6.7 7.8-1 3.2c-.9.7-4 .3-6.3-2.5-2.6-3-2.5-5-.5-8.2l1.3.2Z"/>
  <path fill="#FFD333" d="m149 102.5-.4 4.6-.6 8.8a2 2 0 0 1-2.1 1.8c-2.8-.2-8-3.5-8.3-3.8-.7-3.8-1.2-7.6-1.4-11.5-.1 0 7.4-2.4 12.7.1Z"/>
  <path fill="#FF933B" d="M150.6 110.8c-.2.4-.5.4-.9.4-1.2 0-1.3-1-1.2-1.6l.2-2.2c.8 2 2 2.6 1.9 3.4Z"/>
  <path fill="#232E6A" d="M135 97.2c10-1 18.7-1.3 14 5.8 0 0-2.6-1.3-4.3-1.4-1.6 0-.7 2.2-.7 4v.6c-2 1-1.7 1.9-1.7 2.7-.7.4-8.7 4.5-9.3 5.1-2.9-7.3-5.2-16.2 2-16.8Z"/>
  <path fill="#FFD333" d="m138.6 107.2 1.3-.2.2 1.5.3 1v1.2c0 .8-.5 1.4-1.1 1.4-.8.1-1.6-1-1.8-2.4-.3-1.2.3-2.4 1-2.5Z"/>
  <path fill="#232E6A" d="m141 116.1 2.8 1.1-2.2-12.5-2-.4L141 116Z"/>
  <path fill="#232E6A" d="M148 114s1.4 4.8.8 5.1c-.6.3-3 .2-7.7-3l1.9-3.2c2 .3 4-.6 5.3-2l.7 2.2-1 1Z"/>
  <path fill="#CA0001" d="M132 131.1a18.8 18.8 0 0 1-6.7 4.3v-15l8.9 8.4-2.2 2.3Z"/>
  <path fill="#FFD333" d="m177 139 3.4-7.9 2.4-3.3 2.7-1.9 1 .6-2.2 3.8s2.2-.7 2.7-.4c.4.3.4 1.6-.5 1.8l-2.5.8a3 3 0 0 0-.7 3.2l.4 2.2-1.7 3h-3.6l-1.5-2Z"/>
  <path fill="#FFD333" d="m180.4 141 .2-5.4-27.7-3.2-21.9-15-4.8 7.2 23.9 16.4h30.3Z"/>
  <path fill="#FA0000" d="m143.5 125.4-6.2 8-10.3-7.8a5.1 5.1 0 0 1-1-7.1 5.1 5.1 0 0 1 7.1-1l10.4 7.9Z"/>
</svg>